%TF.GenerationSoftware,KiCad,Pcbnew,7.0.10*%
%TF.CreationDate,2024-02-09T20:13:36-05:00*%
%TF.ProjectId,NSpire_USB-C,4e537069-7265-45f5-9553-422d432e6b69,rev?*%
%TF.SameCoordinates,Original*%
%TF.FileFunction,Legend,Top*%
%TF.FilePolarity,Positive*%
%FSLAX46Y46*%
G04 Gerber Fmt 4.6, Leading zero omitted, Abs format (unit mm)*
G04 Created by KiCad (PCBNEW 7.0.10) date 2024-02-09 20:13:36*
%MOMM*%
%LPD*%
G01*
G04 APERTURE LIST*
%ADD10C,0.150000*%
%ADD11C,0.120000*%
G04 APERTURE END LIST*
D10*
X185766779Y-27869819D02*
X185766779Y-26869819D01*
X185766779Y-26869819D02*
X186338207Y-27869819D01*
X186338207Y-27869819D02*
X186338207Y-26869819D01*
X186766779Y-27822200D02*
X186909636Y-27869819D01*
X186909636Y-27869819D02*
X187147731Y-27869819D01*
X187147731Y-27869819D02*
X187242969Y-27822200D01*
X187242969Y-27822200D02*
X187290588Y-27774580D01*
X187290588Y-27774580D02*
X187338207Y-27679342D01*
X187338207Y-27679342D02*
X187338207Y-27584104D01*
X187338207Y-27584104D02*
X187290588Y-27488866D01*
X187290588Y-27488866D02*
X187242969Y-27441247D01*
X187242969Y-27441247D02*
X187147731Y-27393628D01*
X187147731Y-27393628D02*
X186957255Y-27346009D01*
X186957255Y-27346009D02*
X186862017Y-27298390D01*
X186862017Y-27298390D02*
X186814398Y-27250771D01*
X186814398Y-27250771D02*
X186766779Y-27155533D01*
X186766779Y-27155533D02*
X186766779Y-27060295D01*
X186766779Y-27060295D02*
X186814398Y-26965057D01*
X186814398Y-26965057D02*
X186862017Y-26917438D01*
X186862017Y-26917438D02*
X186957255Y-26869819D01*
X186957255Y-26869819D02*
X187195350Y-26869819D01*
X187195350Y-26869819D02*
X187338207Y-26917438D01*
X187766779Y-27203152D02*
X187766779Y-28203152D01*
X187766779Y-27250771D02*
X187862017Y-27203152D01*
X187862017Y-27203152D02*
X188052493Y-27203152D01*
X188052493Y-27203152D02*
X188147731Y-27250771D01*
X188147731Y-27250771D02*
X188195350Y-27298390D01*
X188195350Y-27298390D02*
X188242969Y-27393628D01*
X188242969Y-27393628D02*
X188242969Y-27679342D01*
X188242969Y-27679342D02*
X188195350Y-27774580D01*
X188195350Y-27774580D02*
X188147731Y-27822200D01*
X188147731Y-27822200D02*
X188052493Y-27869819D01*
X188052493Y-27869819D02*
X187862017Y-27869819D01*
X187862017Y-27869819D02*
X187766779Y-27822200D01*
X188671541Y-27869819D02*
X188671541Y-27203152D01*
X188671541Y-26869819D02*
X188623922Y-26917438D01*
X188623922Y-26917438D02*
X188671541Y-26965057D01*
X188671541Y-26965057D02*
X188719160Y-26917438D01*
X188719160Y-26917438D02*
X188671541Y-26869819D01*
X188671541Y-26869819D02*
X188671541Y-26965057D01*
X189147731Y-27869819D02*
X189147731Y-27203152D01*
X189147731Y-27393628D02*
X189195350Y-27298390D01*
X189195350Y-27298390D02*
X189242969Y-27250771D01*
X189242969Y-27250771D02*
X189338207Y-27203152D01*
X189338207Y-27203152D02*
X189433445Y-27203152D01*
X190147731Y-27822200D02*
X190052493Y-27869819D01*
X190052493Y-27869819D02*
X189862017Y-27869819D01*
X189862017Y-27869819D02*
X189766779Y-27822200D01*
X189766779Y-27822200D02*
X189719160Y-27726961D01*
X189719160Y-27726961D02*
X189719160Y-27346009D01*
X189719160Y-27346009D02*
X189766779Y-27250771D01*
X189766779Y-27250771D02*
X189862017Y-27203152D01*
X189862017Y-27203152D02*
X190052493Y-27203152D01*
X190052493Y-27203152D02*
X190147731Y-27250771D01*
X190147731Y-27250771D02*
X190195350Y-27346009D01*
X190195350Y-27346009D02*
X190195350Y-27441247D01*
X190195350Y-27441247D02*
X189719160Y-27536485D01*
D11*
%TO.C,R2*%
X189636359Y-29112500D02*
X189943641Y-29112500D01*
X189636359Y-28352500D02*
X189943641Y-28352500D01*
%TO.C,R1*%
X186343641Y-29112500D02*
X186036359Y-29112500D01*
X186343641Y-28352500D02*
X186036359Y-28352500D01*
%TD*%
M02*
